# xmcd
#
# Track frame offsets: 
#        150
#        13270
#        26683
#        40389
#        57956
#        69226
#        82372
#        95561
#        112504
#        122828
#        139504
#        155765
#        166291
#
# Disc length: 2491 seconds
#
# Revision: 1
# Processed by: cddbd v1.5.2PL0 Copyright (c) Steve Scherf et al.
# Submitted via: ExactAudioCopy v1.3
#
DISCID=ac09b90d
DTITLE=Jo Ann Kelly - With John Fahey, Woody Mann, John Miller, Alan S
DTITLE=eidler
DYEAR=1972
DGENRE=Blues
TTITLE0=Pigmeat Blues
TTITLE1=Stocking Feet Blues
TTITLE2=Henry Miller's Dream
TTITLE3=Hard Time Killing Floor Blues
TTITLE4=What's The Matter
TTITLE5=High Sheriff Blues
TTITLE6=Arrangement For Me Blues
TTITLE7=Bothering That Thing
TTITLE8=Soo Cow Soo
TTITLE9=Jo's Mistreated Blues
TTITLE10=Tricks Ain't Walking No More
TTITLE11=I Want You To Know
TTITLE12=New Mind Reader Blues
EXTD=YEAR: 1972
EXTT0=
EXTT1=
EXTT2=
EXTT3=
EXTT4=
EXTT5=
EXTT6=
EXTT7=
EXTT8=
EXTT9=
EXTT10=
EXTT11=
EXTT12=
PLAYORDER=
